name C:\Users\u0101727\Documents\MyRepositories\upper-imu-dc\OpenSim\subject0\MA\MA_Splines\angle_in_n6_dof6_2.mot
datacolumns 7
datarows 54
range 250.01000000 250.54000000
endheader 
time	clav_prot	clav_elev	scapula_abduction	scapula_elevation	scapula_upward_rot	scapula_winging	
        250.01000000	        -22.39390379	          2.15399008	          2.85286645	         -4.83889401	         23.68359952	         -0.91704303	
        250.02000000	        -16.90593547	          2.15399008	          2.85286645	         -4.83889401	         23.68359952	         -0.91704303	
        250.03000000	        -44.34577705	          7.05722688	          2.85286645	         -4.83889401	         23.68359952	         -0.91704303	
        250.04000000	        -38.85780873	          7.05722688	          2.85286645	         -4.83889401	         23.68359952	         -0.91704303	
        250.05000000	        -33.36984042	          7.05722688	          2.85286645	         -4.83889401	         23.68359952	         -0.91704303	
        250.06000000	        -27.88187210	          7.05722688	          2.85286645	         -4.83889401	         23.68359952	         -0.91704303	
        250.07000000	        -22.39390379	          7.05722688	          2.85286645	         -4.83889401	         23.68359952	         -0.91704303	
        250.08000000	        -16.90593547	          7.05722688	          2.85286645	         -4.83889401	         23.68359952	         -0.91704303	
        250.09000000	        -44.34577705	         11.96046367	          2.85286645	         -4.83889401	         23.68359952	         -0.91704303	
        250.10000000	        -38.85780873	         11.96046367	          2.85286645	         -4.83889401	         23.68359952	         -0.91704303	
        250.11000000	        -33.36984042	         11.96046367	          2.85286645	         -4.83889401	         23.68359952	         -0.91704303	
        250.12000000	        -27.88187210	         11.96046367	          2.85286645	         -4.83889401	         23.68359952	         -0.91704303	
        250.13000000	        -22.39390379	         11.96046367	          2.85286645	         -4.83889401	         23.68359952	         -0.91704303	
        250.14000000	        -16.90593547	         11.96046367	          2.85286645	         -4.83889401	         23.68359952	         -0.91704303	
        250.15000000	        -44.34577705	         16.86370047	          2.85286645	         -4.83889401	         23.68359952	         -0.91704303	
        250.16000000	        -38.85780873	         16.86370047	          2.85286645	         -4.83889401	         23.68359952	         -0.91704303	
        250.17000000	        -33.36984042	         16.86370047	          2.85286645	         -4.83889401	         23.68359952	         -0.91704303	
        250.18000000	        -27.88187210	         16.86370047	          2.85286645	         -4.83889401	         23.68359952	         -0.91704303	
        250.19000000	        -22.39390379	         16.86370047	          2.85286645	         -4.83889401	         23.68359952	         -0.91704303	
        250.20000000	        -16.90593547	         16.86370047	          2.85286645	         -4.83889401	         23.68359952	         -0.91704303	
        250.21000000	        -44.34577705	         -7.65248351	         11.28790885	         -4.83889401	         23.68359952	         -0.91704303	
        250.22000000	        -38.85780873	         -7.65248351	         11.28790885	         -4.83889401	         23.68359952	         -0.91704303	
        250.23000000	        -33.36984042	         -7.65248351	         11.28790885	         -4.83889401	         23.68359952	         -0.91704303	
        250.24000000	        -27.88187210	         -7.65248351	         11.28790885	         -4.83889401	         23.68359952	         -0.91704303	
        250.25000000	        -22.39390379	         -7.65248351	         11.28790885	         -4.83889401	         23.68359952	         -0.91704303	
        250.26000000	        -16.90593547	         -7.65248351	         11.28790885	         -4.83889401	         23.68359952	         -0.91704303	
        250.27000000	        -44.34577705	         -2.74924671	         11.28790885	         -4.83889401	         23.68359952	         -0.91704303	
        250.28000000	        -38.85780873	         -2.74924671	         11.28790885	         -4.83889401	         23.68359952	         -0.91704303	
        250.29000000	        -33.36984042	         -2.74924671	         11.28790885	         -4.83889401	         23.68359952	         -0.91704303	
        250.30000000	        -27.88187210	         -2.74924671	         11.28790885	         -4.83889401	         23.68359952	         -0.91704303	
        250.31000000	        -22.39390379	         -2.74924671	         11.28790885	         -4.83889401	         23.68359952	         -0.91704303	
        250.32000000	        -16.90593547	         -2.74924671	         11.28790885	         -4.83889401	         23.68359952	         -0.91704303	
        250.33000000	        -44.34577705	          2.15399008	         11.28790885	         -4.83889401	         23.68359952	         -0.91704303	
        250.34000000	        -38.85780873	          2.15399008	         11.28790885	         -4.83889401	         23.68359952	         -0.91704303	
        250.35000000	        -33.36984042	          2.15399008	         11.28790885	         -4.83889401	         23.68359952	         -0.91704303	
        250.36000000	        -27.88187210	          2.15399008	         11.28790885	         -4.83889401	         23.68359952	         -0.91704303	
        250.37000000	        -22.39390379	          2.15399008	         11.28790885	         -4.83889401	         23.68359952	         -0.91704303	
        250.38000000	        -16.90593547	          2.15399008	         11.28790885	         -4.83889401	         23.68359952	         -0.91704303	
        250.39000000	        -44.34577705	          7.05722688	         11.28790885	         -4.83889401	         23.68359952	         -0.91704303	
        250.40000000	        -38.85780873	          7.05722688	         11.28790885	         -4.83889401	         23.68359952	         -0.91704303	
        250.41000000	        -33.36984042	          7.05722688	         11.28790885	         -4.83889401	         23.68359952	         -0.91704303	
        250.42000000	        -27.88187210	          7.05722688	         11.28790885	         -4.83889401	         23.68359952	         -0.91704303	
        250.43000000	        -22.39390379	          7.05722688	         11.28790885	         -4.83889401	         23.68359952	         -0.91704303	
        250.44000000	        -16.90593547	          7.05722688	         11.28790885	         -4.83889401	         23.68359952	         -0.91704303	
        250.45000000	        -44.34577705	         11.96046367	         11.28790885	         -4.83889401	         23.68359952	         -0.91704303	
        250.46000000	        -38.85780873	         11.96046367	         11.28790885	         -4.83889401	         23.68359952	         -0.91704303	
        250.47000000	        -33.36984042	         11.96046367	         11.28790885	         -4.83889401	         23.68359952	         -0.91704303	
        250.48000000	        -27.88187210	         11.96046367	         11.28790885	         -4.83889401	         23.68359952	         -0.91704303	
        250.49000000	        -22.39390379	         11.96046367	         11.28790885	         -4.83889401	         23.68359952	         -0.91704303	
        250.50000000	        -16.90593547	         11.96046367	         11.28790885	         -4.83889401	         23.68359952	         -0.91704303	
        250.51000000	        -44.34577705	         16.86370047	         11.28790885	         -4.83889401	         23.68359952	         -0.91704303	
        250.52000000	        -38.85780873	         16.86370047	         11.28790885	         -4.83889401	         23.68359952	         -0.91704303	
        250.53000000	        -33.36984042	         16.86370047	         11.28790885	         -4.83889401	         23.68359952	         -0.91704303	
        250.54000000	        -27.88187210	         16.86370047	         11.28790885	         -4.83889401	         23.68359952	         -0.91704303	
